o Surface
v -0.256 0.1 -0.834
v -0.834 0.1 -0.834
v 0 0.1 -0.35
v 0.256 0.1 -0.834
v 0.3556 0.1 -0.834
v 0.424 0.1 -0.7628
v 0.424 0.1 -0.6864
v 0.5102 0.1 -0.528
v 0.6618 0.1 -0.4452
v 0.7745 0.1 -0.4498
v 0.834 0.1 -0.391
v -0.834 0.1 -0.306
v -0.834 0.1 -0.35
v 0.834 0.1 -0.35
v 0.834 0.1 -0.306
v -0.8 0.1 0.75
v -0.834 0.1 0.75
v -0.834 0.1 0.8346
v 0.834 0.1 0.8346
v 0.834 0.1 0.75
v 0.8 0.1 0.75
v -0.834 0.1 -0.25
v -0.8 0.1 -0.25
v 0.8 0.1 -0.25
v 0.834 0.1 -0.25
v -0.834 0.1 0.275
v -0.8 0.1 0.45
v -0.8 0.1 0.4
v -0.8 0.1 0.1
v -0.8 0.1 0.05
v 0.834 0.1 0.275
v 0.8 0.1 0.05
v 0.8 0.1 0.1
v 0.8 0.1 0.4
v 0.8 0.1 0.45
v 0.3 0.1 0.05
v 0.3 0.1 -0.25
v -0.3 0.1 -0.25
v -0.3 0.1 0.05
v -0.25 0.1 0.05
v -0.25 0.1 -0.25
v 0.25 0.1 -0.25
v 0.25 0.1 0.05
v -0.3 0.1 0.1
v -0.3 0.1 0.4
v -0.25 0.1 0.4
v -0.25 0.1 0.1
v 0.25 0.1 0.1
v 0.25 0.1 0.4
v 0.3 0.1 0.4
v 0.3 0.1 0.1
v -0.25 0.1 0.75
v 0.25 0.1 0.75
v 0.25 0.1 0.45
v -0.25 0.1 0.45
v -0.3 0.1 0.45
v -0.3 0.1 0.75
v 0.3 0.1 0.75
v 0.3 0.1 0.45
v -0.256 0.1 0.8346
v 0.256 0.1 0.8346
v 0 0.1 0.8346
vt 0.34652278177458 1
vt 0 1
vt 0.5 0.500179791441927
vt 0.65347721822542 1
vt 0.713189448441247 1
vt 0.754196642685851 0.957329497782572
vt 0.754196642685851 0.911542610571737
vt 0.805875299760192 0.816612729234088
vt 0.896762589928058 0.766990291262136
vt 0.964328537170264 0.769747093371689
vt 1 0.734507970753925
vt 0 0.653601821886612
vt 0 0.500179791441927
vt 1 0.500179791441927
vt 1 0.653601821886612
vt 0.5 0.346757760997243
vt 0 0.346757760997243
vt 0 0
vt 1 0
vt 1 0.346757760997243
vt 0.75 0.346757760997243
vt 0 0.423468776219585
vt 0.25 0.423468776219585
vt 0.5 0.423468776219585
vt 1 0.423468776219585
vt 0 0.385113268608414
vt 0.4375 0.365935514802829
vt 0.40625 0.375524391705621
vt 0.375 0.385113268608414
vt 0.3125 0.404291022414
vt 1 0.385113268608414
vt 0.5625 0.404291022414
vt 0.625 0.385113268608414
vt 0.65625 0.375524391705621
vt 0.6875 0.365935514802829
vt 0.5 0.404291022414
vt 0.4375 0.423468776219585
vt 0.3125 0.423468776219585
vt 0.375 0.404291022414
vt 0.4375 0.404291022414
vt 0.375 0.423468776219585
vt 0.40625 0.423468776219585
vt 0.46875 0.404291022414
vt 0.4375 0.385113268608414
vt 0.46875 0.375524391705621
vt 0.5 0.375524391705621
vt 0.46875 0.385113268608414
vt 0.5 0.385113268608414
vt 0.53125 0.375524391705621
vt 0.59375 0.375524391705621
vt 0.5625 0.385113268608414
vt 0.625 0.346757760997243
vt 0.65625 0.346757760997243
vt 0.59375 0.365935514802829
vt 0.5625 0.365935514802829
vt 0.5 0.365935514802829
vt 0.5625 0.346757760997243
vt 0.6875 0.346757760997243
vt 0.625 0.365935514802829
vt 0.34652278177458 0
vt 0.65347721822542 0
vt 0.5 0
vn 0 1 0
g Surface
f 1/1/1 2/2/1 3/3/1
f 4/4/1 1/1/1 3/3/1
f 5/5/1 4/4/1 3/3/1
f 6/6/1 5/5/1 3/3/1
f 7/7/1 6/6/1 3/3/1
f 8/8/1 7/7/1 3/3/1
f 9/9/1 8/8/1 3/3/1
f 10/10/1 9/9/1 3/3/1
f 11/11/1 10/10/1 3/3/1
f 2/2/1 12/12/1 13/13/1 3/3/1
f 14/14/1 15/15/1 11/11/1 3/3/1
f 16/16/1 17/17/1 18/18/1
f 19/19/1 20/20/1 21/21/1
f 13/13/1 22/22/1 23/23/1
f 24/24/1 25/25/1 14/14/1
f 23/23/1 22/22/1 26/26/1
f 26/26/1 17/17/1 16/16/1
f 16/16/1 27/27/1 28/28/1 29/29/1 30/30/1 23/23/1 26/26/1
f 31/31/1 25/25/1 24/24/1
f 21/21/1 20/20/1 31/31/1
f 31/31/1 24/24/1 32/32/1 33/33/1 34/34/1 35/35/1 21/21/1
f 36/36/1 32/32/1 24/24/1 37/37/1
f 38/38/1 23/23/1 30/30/1 39/39/1
f 39/39/1 40/40/1 41/41/1 38/38/1
f 42/42/1 41/41/1 40/40/1 43/43/1
f 43/43/1 36/36/1 37/37/1 42/42/1
f 44/44/1 29/29/1 28/28/1 45/45/1
f 45/45/1 46/46/1 47/47/1 44/44/1
f 48/48/1 47/47/1 46/46/1 49/49/1
f 50/50/1 34/34/1 33/33/1 51/51/1
f 51/51/1 48/48/1 49/49/1 50/50/1
f 52/52/1 53/53/1 54/54/1 55/55/1
f 56/56/1 27/27/1 16/16/1 57/57/1
f 57/57/1 52/52/1 55/55/1 56/56/1
f 58/58/1 21/21/1 35/35/1 59/59/1
f 59/59/1 54/54/1 53/53/1 58/58/1
f 39/39/1 30/30/1 29/29/1 44/44/1
f 40/40/1 39/39/1 44/44/1 47/47/1
f 43/43/1 40/40/1 47/47/1 48/48/1
f 51/51/1 33/33/1 32/32/1 36/36/1
f 36/36/1 43/43/1 48/48/1 51/51/1
f 59/59/1 35/35/1 34/34/1 50/50/1
f 54/54/1 59/59/1 50/50/1 49/49/1
f 55/55/1 54/54/1 49/49/1 46/46/1
f 45/45/1 28/28/1 27/27/1 56/56/1
f 56/56/1 55/55/1 46/46/1 45/45/1
f 3/3/1 13/13/1 23/23/1 38/38/1
f 38/38/1 41/41/1 3/3/1
f 3/3/1 41/41/1 42/42/1
f 37/37/1 24/24/1 14/14/1 3/3/1
f 3/3/1 42/42/1 37/37/1
f 18/18/1 60/60/1 61/61/1 19/19/1 62/62/1
f 57/57/1 16/16/1 18/18/1 62/62/1
f 52/52/1 57/57/1 62/62/1
f 53/53/1 52/52/1 62/62/1
f 62/62/1 19/19/1 21/21/1 58/58/1
f 58/58/1 53/53/1 62/62/1
#h 
