# Blender 4.3.2
# www.blender.org
mtllib K56.mtl
o Surface
v -0.256000 0.100000 -0.834000
v -0.834000 0.100000 -0.834000
v 0.000000 0.100000 -0.350000
v 0.256000 0.100000 -0.834000
v 0.355600 0.100000 -0.834000
v 0.424000 0.100000 -0.762800
v 0.424000 0.100000 -0.686400
v 0.510200 0.100000 -0.528000
v 0.661800 0.100000 -0.445200
v 0.774500 0.100000 -0.449800
v 0.834000 0.100000 -0.391000
v -0.834000 0.100000 -0.306000
v -0.834000 0.100000 -0.350000
v 0.834000 0.100000 -0.350000
v 0.834000 0.100000 -0.306000
v -0.800000 0.100000 0.750000
v -0.834000 0.100000 0.750000
v -0.834000 0.100000 0.834600
v 0.834000 0.100000 0.834600
v 0.834000 0.100000 0.750000
v 0.800000 0.100000 0.750000
v -0.834000 0.100000 -0.250000
v -0.800000 0.100000 -0.250000
v 0.800000 0.100000 -0.250000
v 0.834000 0.100000 -0.250000
v -0.834000 0.100000 0.275000
v -0.800000 0.100000 0.450000
v -0.800000 0.100000 0.400000
v -0.800000 0.100000 0.100000
v -0.800000 0.100000 0.050000
v 0.834000 0.100000 0.275000
v 0.800000 0.100000 0.050000
v 0.800000 0.100000 0.100000
v 0.800000 0.100000 0.400000
v 0.800000 0.100000 0.450000
v 0.300000 0.100000 0.050000
v 0.300000 0.100000 -0.250000
v -0.300000 0.100000 -0.250000
v -0.300000 0.100000 0.050000
v -0.250000 0.100000 0.050000
v -0.250000 0.100000 -0.250000
v 0.250000 0.100000 -0.250000
v 0.250000 0.100000 0.050000
v -0.300000 0.100000 0.100000
v -0.300000 0.100000 0.400000
v -0.250000 0.100000 0.400000
v -0.250000 0.100000 0.100000
v 0.250000 0.100000 0.100000
v 0.250000 0.100000 0.400000
v 0.300000 0.100000 0.400000
v 0.300000 0.100000 0.100000
v -0.250000 0.100000 0.750000
v 0.250000 0.100000 0.750000
v 0.250000 0.100000 0.450000
v -0.250000 0.100000 0.450000
v -0.300000 0.100000 0.450000
v -0.300000 0.100000 0.750000
v 0.300000 0.100000 0.750000
v 0.300000 0.100000 0.450000
v -0.256000 0.100000 0.834600
v 0.256000 0.100000 0.834600
v 0.000000 0.100000 0.834600
v -0.250000 0.350000 0.400000
v -0.250000 0.350000 0.100000
v 0.250000 0.350000 0.100000
v 0.250000 0.350000 0.400000
v 0.800000 0.350000 0.100000
v 0.800000 0.350000 0.400000
v 0.300000 0.350000 0.400000
v 0.300000 0.350000 0.100000
vn -0.0000 1.0000 -0.0000
vn 0.3015 0.9045 -0.3015
vn 0.3015 0.9045 0.3015
vn -0.3015 0.9045 0.3015
vn -0.3015 0.9045 -0.3015
vn -0.5774 0.5774 -0.5774
vn 0.5774 0.5774 -0.5774
vn -0.5774 0.5774 0.5774
vn 0.5774 0.5774 0.5774
vt 0.346523 1.000000
vt 0.000000 1.000000
vt 0.500000 0.500180
vt 0.653477 1.000000
vt 0.713189 1.000000
vt 0.754197 0.957330
vt 0.754197 0.911543
vt 0.805875 0.816613
vt 0.896763 0.766990
vt 0.964329 0.769747
vt 1.000000 0.734508
vt 0.000000 0.653602
vt 0.000000 0.500180
vt 1.000000 0.500180
vt 1.000000 0.653602
vt 0.500000 0.346758
vt 0.000000 0.346758
vt 0.000000 0.000000
vt 1.000000 0.000000
vt 1.000000 0.346758
vt 0.750000 0.346758
vt 0.000000 0.423469
vt 0.250000 0.423469
vt 0.500000 0.423469
vt 1.000000 0.423469
vt 0.000000 0.385113
vt 0.437500 0.365936
vt 0.406250 0.375524
vt 0.375000 0.385113
vt 0.312500 0.404291
vt 1.000000 0.385113
vt 0.562500 0.404291
vt 0.625000 0.385113
vt 0.656250 0.375524
vt 0.687500 0.365936
vt 0.500000 0.404291
vt 0.437500 0.423469
vt 0.312500 0.423469
vt 0.375000 0.404291
vt 0.437500 0.404291
vt 0.375000 0.423469
vt 0.406250 0.423469
vt 0.468750 0.404291
vt 0.437500 0.385113
vt 0.468750 0.375524
vt 0.500000 0.375524
vt 0.468750 0.385113
vt 0.500000 0.385113
vt 0.562500 0.385113
vt 0.531250 0.375524
vt 0.593750 0.375524
vt 0.625000 0.346758
vt 0.656250 0.346758
vt 0.593750 0.365936
vt 0.562500 0.365936
vt 0.500000 0.365936
vt 0.562500 0.346758
vt 0.687500 0.346758
vt 0.625000 0.365936
vt 0.346523 0.000000
vt 0.653477 0.000000
vt 0.500000 0.000000
s 1
f 1/1/1 2/2/1 3/3/1
f 4/4/1 1/1/1 3/3/1
f 5/5/1 4/4/1 3/3/1
f 6/6/1 5/5/1 3/3/1
f 7/7/1 6/6/1 3/3/1
f 8/8/1 7/7/1 3/3/1
f 9/9/1 8/8/1 3/3/1
f 10/10/1 9/9/1 3/3/1
f 11/11/1 10/10/1 3/3/1
f 2/2/1 12/12/1 13/13/1 3/3/1
f 14/14/1 15/15/1 11/11/1 3/3/1
f 16/16/1 17/17/1 18/18/1
f 19/19/1 20/20/1 21/21/1
f 13/13/1 22/22/1 23/23/1
f 24/24/1 25/25/1 14/14/1
f 23/23/1 22/22/1 26/26/1
f 26/26/1 17/17/1 16/16/1
f 16/16/1 27/27/1 28/28/1 29/29/1 30/30/1 23/23/1 26/26/1
f 31/31/1 25/25/1 24/24/1
f 21/21/1 20/20/1 31/31/1
f 31/31/1 24/24/1 32/32/1 33/33/2 34/34/3 35/35/1 21/21/1
f 36/36/1 32/32/1 24/24/1 37/37/1
f 38/38/1 23/23/1 30/30/1 39/39/1
f 39/39/1 40/40/1 41/41/1 38/38/1
f 42/42/1 41/41/1 40/40/1 43/43/1
f 43/43/1 36/36/1 37/37/1 42/42/1
f 44/44/1 29/29/1 28/28/1 45/45/1
f 45/45/1 46/46/4 47/47/5 44/44/1
f 48/48/2 47/47/5 64/47/6 65/48/7
f 33/33/2 51/49/5 70/49/6 67/33/7
f 51/49/5 48/48/2 49/50/3 50/51/4
f 52/52/1 53/53/1 54/54/1 55/55/1
f 56/56/1 27/27/1 16/16/1 57/57/1
f 57/57/1 52/52/1 55/55/1 56/56/1
f 58/58/1 21/21/1 35/35/1 59/59/1
f 59/59/1 54/54/1 53/53/1 58/58/1
f 39/39/1 30/30/1 29/29/1 44/44/1
f 40/40/1 39/39/1 44/44/1 47/47/5
f 43/43/1 40/40/1 47/47/5 48/48/2
f 51/49/5 33/33/2 32/32/1 36/36/1
f 36/36/1 43/43/1 48/48/2 51/49/5
f 59/59/1 35/35/1 34/34/3 50/51/4
f 54/54/1 59/59/1 50/51/4 49/50/3
f 55/55/1 54/54/1 49/50/3 46/46/4
f 45/45/1 28/28/1 27/27/1 56/56/1
f 56/56/1 55/55/1 46/46/4 45/45/1
f 3/3/1 13/13/1 23/23/1 38/38/1
f 38/38/1 41/41/1 3/3/1
f 3/3/1 41/41/1 42/42/1
f 37/37/1 24/24/1 14/14/1 3/3/1
f 3/3/1 42/42/1 37/37/1
f 18/18/1 60/60/1 61/61/1 19/19/1 62/62/1
f 57/57/1 16/16/1 18/18/1 62/62/1
f 52/52/1 57/57/1 62/62/1
f 53/53/1 52/52/1 62/62/1
f 62/62/1 19/19/1 21/21/1 58/58/1
f 58/58/1 53/53/1 62/62/1
f 65/48/7 64/47/6 63/46/8 66/50/9
f 46/46/4 49/50/3 66/50/9 63/46/8
f 49/50/3 48/48/2 65/48/7 66/50/9
f 47/47/5 46/46/4 63/46/8 64/47/6
f 69/51/8 68/34/9 67/33/7 70/49/6
f 51/49/5 50/51/4 69/51/8 70/49/6
f 34/34/3 33/33/2 67/33/7 68/34/9
f 50/51/4 34/34/3 68/34/9 69/51/8
